Movies : Adventure  : BluRay : English


Jack the Giant Slayer 2013 1080p x264 - alrmothe






IMDB: 
http://www.imdb.com/title/tt1351685/
Genre: Adventure | Fantasy
Source:Remux KRaLiMaRKo
Language:English
File size:7.70 GiB
Overall bit rate:9640 kbps
Duration:1h 54mn
Encoded / Released By:alrmothe


Storyline:Sent to the market by his uncle to sell their horse and buy thatch for their roof, Jack meets the beautiful Princess Isabelle whom he rescues her from ruffians. He returns home only with a handful of beans given to him by a monk who claimed they were sacred but that does little to impress his uncle who tosses them away. In the night the Princess arrives having run off to keep from marrying Roderick who is clearly only interested in becoming king. Soon the beans take root with a giant stalk carrying away the princess and Jack's house. He soon sets off on an adventure with the king's guards to rescue the princess only to find that a mythical land filled with giants really exists.



cast
Nicholas Hoult ... Jack
Eleanor Tomlinson ... Isabelle
Ewan McGregor ... Elmont
Stanley Tucci ... Roderick
Eddie Marsan ... Crawe
Ewen Bremner ... Wicke




Video Information

Format: Matroska
Format : AVC 
Format/Info : Advanced Video Codec 
Format profile : High@L4.1 
Format settings, CABAC : Yes 
Format settings, ReFrames : 4 frames  
Codec ID : V_MPEG4/ISO/AVC  
Bit rate : 9000 kbps 
Display aspect ratio : 2:40:1 
Frame rate : 23.976 fps 
Color space : YUV 
Chroma subsampling : 4:2:0 
Bit depth : 8 bits 
Scan type : Progressive 
Bits/(Pixel*Frame) : 0.244 
Stream size: 7.04 GiB 
Resolution:1920x800


Audio Information:
Format: AC3
Bit rate 640 Kbps
Channel(s) : 6 channels
Channel positions:Front: L C R, Side: L R, LFE
Sampling rate: 48.0 KHz
Bit depth: 16 bits
Compression mode: Lossy
Stream size:524 GiB
Language:English


Chapters::yes(not named)

sample:yes


SUB:Arabic, English.


Screenshots 
http://img11.imageshack.us/img11/6379/vlcsnap2013060517h45m15.png 
http://img856.imageshack.us/img856/2343/vlcsnap2013060517h50m01.png 
http://img194.imageshack.us/img194/5748/vlcsnap2013060517h45m56.png 
http://img545.imageshack.us/img545/377/vlcsnap2013060517h50m47.png 
http://img542.imageshack.us/img542/3509/vlcsnap2013060517h46m31.png

Use KMPlayer for the best quality




Code:
 
http://p2pdl.com:2710/announce 
http://exodus.desync.com:6969/announce
udp://tracker.openbittorrent.com:80/announce
udp://tracker.istole.it:80/announce
udp://tracker.publicbt.com:80/announce
udp://10.rarbg.me:80/announce 
http://bt.poletracker.org:2710/announce
udp://ipv4.tracker.harry.lu:80/announce 
http://94.228.192.98/announce 
http://announce.opensharing.org:2710/announce
udp://tracker.beeimg.com:6969/announce



